<svg width="32" height="32" viewBox="0 0 32 32" fill="none" xmlns="http://www.w3.org/2000/svg">
  <rect width="32" height="32" rx="6" fill="black"/>
  <path d="M16 6L14.5 7.5C12.5 9.5 10 12 10 15C10 16.5 10.5 17.5 11.5 18.5L13.5 20.5L11 23L12.5 24.5L15 22L17 24C18 25 19 25.5 20.5 25.5C23.5 25.5 26 23 28 21L26.5 19.5C24.5 21.5 22.5 23 20.5 23C19.5 23 19 22.5 18.5 22L16.5 20L19 17.5L17.5 16L15 18.5L13 16.5C12.5 16 12 15.5 12 14.5C12 12.5 13.5 10.5 15.5 8.5L16 8L16.5 8.5C18.5 10.5 20 12.5 20 14.5C20 15 19.8 15.5 19.5 16L21 17.5C21.5 16.8 22 15.7 22 14.5C22 12 19.5 9.5 17.5 7.5L16 6Z" fill="white"/>
</svg>
